<?xml version="1.0" encoding="UTF-8" standalone="no"?>
<!DOCTYPE svg PUBLIC "-//W3C//DTD SVG 1.1//EN" "http://www.w3.org/Graphics/SVG/1.1/DTD/svg11.dtd">
<svg width="100%" height="100%" viewBox="0 0 1300 650" version="1.1" xmlns="http://www.w3.org/2000/svg" xmlns:xlink="http://www.w3.org/1999/xlink" xml:space="preserve" xmlns:serif="http://www.serif.com/" style="fill-rule:evenodd;clip-rule:evenodd;">
    <g transform="matrix(0,-0.8125,-2.6,0,2300,1040.62)">
        <path d="M1280.77,717.955L747.435,717.955L1014.1,551.285L1280.77,551.285L1280.77,717.955Z" style="fill:white;fill-rule:nonzero;"/>
    </g>
    <g transform="matrix(0,-0.8125,-2.6,0,2300,1040.62)">
        <path d="M1280.77,884.615L480.77,884.615L747.436,717.945L1280.77,717.945L1280.77,884.615Z" style="fill:rgb(0,38,84);fill-rule:nonzero;"/>
    </g>
    <g transform="matrix(0,-0.8125,-2.6,0,2300,1040.62)">
        <path d="M1014.1,551.285L1280.77,384.615L1280.77,551.285L1014.1,551.285Z" style="fill:rgb(206,17,38);fill-rule:nonzero;"/>
    </g>
    <g transform="matrix(21.6667,0,0,21.6667,0,0)">
        <clipPath id="_clip1">
            <path d="M0,30L60,30L60,0L0,30Z"/>
        </clipPath>
        <g clip-path="url(#_clip1)">
            <rect x="0" y="0" width="60" height="30" style="fill:rgb(0,36,125);fill-rule:nonzero;"/>
            <path d="M0,0L60,30M60,0L0,30" style="fill-rule:nonzero;stroke:white;stroke-width:6px;"/>
            <clipPath id="_clip2">
                <path d="M30,15L60,30L60,15L0,15L0,30L30,30L30,15Z"/>
            </clipPath>
            <g clip-path="url(#_clip2)">
                <path d="M0,30L30,15L60,30" style="fill:none;fill-rule:nonzero;stroke:rgb(207,20,43);stroke-width:4px;"/>
            </g>
            <path d="M30,0L30,30M0,15L60,15" style="fill-rule:nonzero;stroke:white;stroke-width:10px;"/>
            <path d="M30,0L30,30M0,15L60,15" style="fill-rule:nonzero;stroke:rgb(207,20,43);stroke-width:6px;"/>
        </g>
    </g>
</svg>
