<svg xmlns="http://www.w3.org/2000/svg" viewBox="0 0 100 100" height="100mm" width="100mm"><g stroke-width="3" stroke-linecap="round" stroke-linejoin="round"><path d="M50.6 24.743v67.784c7.563-1.099 14.945-3.407 22.417-3.774 7.42-.364 14.93 1.2 21.982 3.774v-54.15l.027-13.634c-15.648-8.39-29.638-.206-44.426 0zm-45.3.583V93.46c9.17-3.452 17.268-4.38 23.304-4.412C37.456 89 43.033 91.172 50.6 92.527l7.032-52.99 2.552-13.958c-10.056-1.447-18.227-4.629-28.33-5.366-8.109-.59-18.092.393-26.555 5.113z" stroke-width="4.74903"/><path d="M50.426 24.568v68.133c7.176-10.918 15.304-19.42 26.828-19.3V18.971l.025-13.704c-9.332 4.34-19.3 5.176-26.853 19.3z" stroke="var(--color-theme)" stroke-width="4.74903"/></g></svg>