<svg xmlns="http://www.w3.org/2000/svg" viewBox="0 0 100 100" height="100" width="100">
<style type="text/css">
	.st0{fill:none;stroke:#2EA39B;stroke-width:1.999;stroke-linecap:round;stroke-linejoin:round;}
	.st1{display:none;fill:#F4B900;stroke:#FFFFFF;stroke-width:1.8;stroke-miterlimit:10;}
	.st2{fill:none;stroke:#FFFFFF;stroke-width:1.8;stroke-linecap:round;stroke-miterlimit:10;}
	.st3{display:none;fill:none;stroke:#FFFFFF;stroke-width:1.8;stroke-linecap:round;stroke-miterlimit:10;}
	.st4{fill:none;stroke:#FFFFFF;stroke-width:1.8;stroke-miterlimit:10;}
	.st5{fill:none;stroke:#FFFFFF;stroke-width:0.75;stroke-miterlimit:10;}
</style>
<polygon class="st0" points="4.2,-0.3 4.2,-0.3 4.2,-0.3 4.2,-0.3 "/>
<image style="display:none;overflow:visible;" width="1300" height="1049" xlink:href="CB1EE428.jpg"  transform="matrix(0.1109 0 0 0.1109 -22.1051 -2.9858)">
</image>
<rect x="-4.8" y="0.3" class="st1" width="112" height="99.4"/>
<path class="st2" d="M42.9,81.9c0,0,1.2-16-3.7-20.7c-17.8-17.2-2-34.8,11-34.8c16.1,0,26.2,20.4,12,34c-5.2,5-3.5,20.5-3.5,20.5"/>
<line class="st2" x1="26" y1="44.2" x2="17" y2="44.2"/>
<line class="st3" x1="32.3" y1="62.1" x2="26.9" y2="67.5"/>
<line class="st3" x1="68.2" y1="62.1" x2="73.5" y2="67.5"/>
<line class="st2" x1="74.6" y1="44.2" x2="83" y2="44.2"/>
<line class="st2" x1="66.3" y1="27.9" x2="73.5" y2="20.9"/>
<line class="st2" x1="50.1" y1="21.8" x2="50.1" y2="13.7"/>
<line class="st2" x1="34.1" y1="27.9" x2="26.9" y2="20.9"/>
<path class="st4" d="M45.3,77.4c0,0,5.8,2,10.3,1.5"/>
<path class="st4" d="M45.3,81.1c0,0,5.8,2,10.3,1.5"/>
<path class="st4" d="M45.3,84.7c0,0,5.8,2,10.3,1.5"/>
<path class="st5" d="M47.6,70c0,0,0.8-27.3-2.5-27.5c-1.7-0.1-1.2,9.7,2,9.6c5.1-0.2,6.1-9.8,3.3-9.8c-2.5,0-1.2,10.8,3.3,9.3
	c4.7-1.6,3.6-9,1-8.8c-2.5,0.1-1,26-1,26"/>
</svg>
