<svg xmlns="http://www.w3.org/2000/svg" width="100" height="100" viewBox="0 0 26.458 26.458">
    <circle
        style="fill:none;stroke:#2ea39b;stroke-width:1.99901;stroke-linecap:round;stroke-linejoin:round;stroke-miterlimit:4;stroke-dasharray:none;stroke-opacity:1"
        transform="rotate(22.512)" />
    <g transform="translate(0 -.081)">
        <circle transform="matrix(.32413 0 0 .32413 -12.36 -16.123)" r="4.744" cy="57.774" cx="77.69"
            style="fill:#f5fbfb;fill-opacity:1;stroke:none;stroke-width:1.00012;stroke-linejoin:round;stroke-miterlimit:4;stroke-dasharray:none" />
        <circle
            style="fill:#f5fbfb;fill-opacity:1;stroke:none;stroke-width:1.00012;stroke-linejoin:round;stroke-miterlimit:4;stroke-dasharray:none"
            cx="113.529" cy="6.066" transform="scale(.32413) rotate(30 73.755 -96.024)" r="4.744" />
        <circle transform="scale(.32413) rotate(60 24.013 -57.893)" r="4.744" cy="-56.236" cx="119.077"
            style="fill:#f5fbfb;fill-opacity:1;stroke:none;stroke-width:1.00012;stroke-linejoin:round;stroke-miterlimit:4;stroke-dasharray:none" />
        <circle
            style="fill:#f5fbfb;fill-opacity:1;stroke:none;stroke-width:1.00012;stroke-linejoin:round;stroke-miterlimit:4;stroke-dasharray:none"
            cx="91.586" cy="-112.175" r="4.744" transform="matrix(0 .32413 -.32413 0 -12.36 -16.123)" />
        <circle transform="scale(-.32413) rotate(-60 62.143 -8.15)" r="4.744" cy="-146.558" cx="40.951"
            style="fill:#f5fbfb;fill-opacity:1;stroke:none;stroke-width:1.00012;stroke-linejoin:round;stroke-miterlimit:4;stroke-dasharray:none" />
        <circle
            style="fill:#f5fbfb;fill-opacity:1;stroke:none;stroke-width:1.00012;stroke-linejoin:round;stroke-miterlimit:4;stroke-dasharray:none"
            cx="-22.056" cy="-151.308" r="4.744" transform="scale(-.32413) rotate(-30 111.886 -46.281)" />
        <circle transform="matrix(-.32413 0 0 -.32413 -12.36 -16.123)" r="4.744" cy="-123.717" cx="-77.69"
            style="fill:#f5fbfb;fill-opacity:1;stroke:none;stroke-width:1.00012;stroke-linejoin:round;stroke-miterlimit:4;stroke-dasharray:none" />
        <circle
            style="fill:#f5fbfb;fill-opacity:1;stroke:none;stroke-width:1.00012;stroke-linejoin:round;stroke-miterlimit:4;stroke-dasharray:none"
            cx="-112.655" cy="-72.334" r="4.744" transform="scale(-.32413) rotate(30 -73.755 96.024)" />
        <circle transform="scale(-.32413) rotate(60 -24.013 57.893)" r="4.744" cy="-10.31" cx="-117.098"
            style="fill:#f5fbfb;fill-opacity:1;stroke:none;stroke-width:1.00012;stroke-linejoin:round;stroke-miterlimit:4;stroke-dasharray:none" />
        <circle
            style="fill:#f5fbfb;fill-opacity:1;stroke:none;stroke-width:1.00012;stroke-linejoin:round;stroke-miterlimit:4;stroke-dasharray:none"
            cx="-91.586" cy="45.534" r="4.744" transform="matrix(0 -.32413 .32413 0 -12.36 -16.123)" />
        <circle transform="scale(.32413) rotate(-60 -62.143 8.15)" r="4.744" cy="80.386" cx="-40.434"
            style="fill:#f5fbfb;fill-opacity:1;stroke:none;stroke-width:1.00012;stroke-linejoin:round;stroke-miterlimit:4;stroke-dasharray:none" />
        <circle
            style="fill:#f5fbfb;fill-opacity:1;stroke:none;stroke-width:1.00012;stroke-linejoin:round;stroke-miterlimit:4;stroke-dasharray:none"
            cx="21.657" cy="84.819" r="4.744" transform="scale(.32413) rotate(-30 -111.886 46.281)" />
        <path
            d="M13.203 2.066A11.165 11.165 0 0 0 2.038 13.23a11.165 11.165 0 0 0 11.165 11.165A11.165 11.165 0 0 0 24.368 13.23 11.165 11.165 0 0 0 13.203 2.066zm0 .65A10.515 10.515 0 0 1 23.718 13.23a10.515 10.515 0 0 1-10.515 10.515A10.515 10.515 0 0 1 2.688 13.23 10.515 10.515 0 0 1 13.203 2.716z"
            style="fill:#f5fbfb;fill-opacity:1;stroke:none;stroke-width:.152393;stroke-linejoin:round;stroke-miterlimit:4;stroke-dasharray:none" />
    </g>
</svg>