<svg xmlns="http://www.w3.org/2000/svg" viewBox="0 0 100 100">
  <style type="text/css">
	.st0{fill:none;stroke:#2EA39B;stroke-width:1.999;stroke-linecap:round;stroke-linejoin:round;}
	.st1{display:none;fill:#F4B900;stroke:#FFFFFF;stroke-width:1.8;stroke-miterlimit:10;}
	.st2{fill:none;stroke:#FFFFFF;stroke-width:2;stroke-miterlimit:10;}
	.st3{fill:none;stroke:#FFFFFF;stroke-miterlimit:10;}
	.st4{fill:none;stroke:#FFFFFF;stroke-width:2;stroke-linejoin:bevel;stroke-miterlimit:10;}
	.st5{display:none;fill:none;stroke:#FFFFFF;stroke-linejoin:bevel;stroke-miterlimit:10;}
	.st6{fill:none;stroke:#FFFFFF;stroke-width:2;stroke-linecap:round;stroke-linejoin:round;stroke-miterlimit:10;}
	.st7{fill:none;stroke:#FFFFFF;stroke-width:2;stroke-linecap:round;stroke-linejoin:bevel;stroke-miterlimit:10;}
  </style>
  <polygon class="st0" points="4.2,-0.3 4.2,-0.3 4.2,-0.3 4.2,-0.3 "/>
  <rect x="-4.8" y="0.3" class="st1" width="112" height="99.4"/>
  <image style="display:none;overflow:visible;" width="1150" height="1000" xlink:href="C98F7F07.jpg" transform="matrix(9.867073e-02 0 0 9.867073e-02 -4.7643 -0.3229)">
  </image>
  <path class="st2" d="M74.6,16.7h-46c0,0-6.4-0.8-6.6,6.4S22,72.8,22,72.8s0.5,3.7,7.1,3.7c8.9,0,45.6-0.2,45.6-0.2V16.7z"/>
  <line class="st2" x1="28.6" y1="16.7" x2="28.6" y2="60.4"/>
  <polyline class="st2" points="74.6,68.5 28.6,68.5 28.6,66.2 "/>
  <path class="st2" d="M24.8,69.9c0,0,1.7-1.4,3.8-1.4"/>
  <path class="st3" d="M74.6,71.9"/>
  <polyline class="st4" points="74.6,20.4 79.2,21.8 79.2,29.9 74.6,31.2 79.2,32.6 79.2,40.2 74.6,42.4 79.2,43.8 79.2,51.3 
	74.6,52.9 79.2,54.2 79.2,62.1 74.6,63.8 "/>
  <line class="st5" x1="30.2" y1="73.4" x2="69.8" y2="73.4"/>
  <polyline class="st6" points="40.2,49 43.6,40.6 46.7,49 "/>
  <line class="st4" x1="41.2" y1="46.6" x2="45.8" y2="46.6"/>
  <line class="st7" x1="50" y1="44.8" x2="53.1" y2="44.8"/>
  <polyline class="st6" points="56.5,40.6 62.4,40.6 56.5,49 62.4,49 "/>
</svg>