<svg xmlns="http://www.w3.org/2000/svg" xmlns:xlink="http://www.w3.org/1999/xlink" viewBox="0 0 210 100" height="100mm" width="210mm"><defs><linearGradient id="a"><stop offset="0"/><stop offset="1" stop-color="#fff"/></linearGradient><linearGradient gradientTransform="matrix(1.0572 0 0 1.0572 -15.29 64.541)" gradientUnits="userSpaceOnUse" y2="65.901" x2="61.481" y1="73.451" x1="72.448" id="b" xlink:href="#a"/><linearGradient gradientTransform="translate(-17.124 68.628)" y2="57.479" x2="94.394" y1="51.468" x1="78.775" gradientUnits="userSpaceOnUse" id="c" xlink:href="#a"/></defs><text style="line-height:1.25" x="79.421" y="147.763" transform="matrix(.9904 0 0 1.0097 -18.498 -90.807)" font-weight="400" font-size="26.334" font-family="sans-serif" stroke-width="1.406"><tspan x="79.421" y="147.763" style="-inkscape-font-specification:'Nunito Sans, Bold';font-variant-ligatures:normal;font-variant-caps:normal;font-variant-numeric:normal;font-variant-east-asian:normal" font-weight="700" font-family="Nunito Sans">TEMPER<tspan style="-inkscape-font-specification:'Nunito Sans, Bold';font-variant-ligatures:normal;font-variant-caps:normal;font-variant-numeric:normal;font-variant-east-asian:normal" font-size="14.111">app</tspan></tspan></text><path d="M31.263 50.37a11.77 12.053 0 017.475-11.195 11.77 12.053 0 0112.914 3.012 11.77 12.053 0 012.001 13.407 11.77 12.053 0 01-11.445 6.826" fill="none" stroke="#000" stroke-width="2.324" stroke-linecap="square" stroke-linejoin="round"/><path d="M28.003 50.949a14.996 14.996 0 019.01-14.264 14.996 14.996 0 0116.574 3.143A14.996 14.996 0 0156.75 56.4a14.996 14.996 0 01-14.252 9.026" fill="none" stroke="#000" stroke-width="1.461" stroke-linecap="square" stroke-linejoin="round"/><path fill="#fff" d="M25.424 48.612h8.887v4.21h-8.887z"/><g transform="translate(-18.365 -91.074)"><ellipse ry="5.271" rx="4.94" cy="141.416" cx="61.438" fill="url(#b)"/><path d="M65.4 141.976l.063-17.673 2.283-3.678" fill="none" stroke="#000" stroke-width="1.965" stroke-linecap="round"/><path d="M58.491 119.419l.047 6.19 4.846-.934s3.658-.916 6.592-2.174c.978-.42 2.311-1.476 2.311-1.476v-7.512s-.746.885-1.346 1.441c-.884.818-1.925 1.346-3.048 1.866-1.662.77-6.95 2.236-6.95 2.236z" fill="url(#c)" transform="translate(5.953 .53)"/></g><path fill="#fff" d="M39.355 59.133h5.546v10.49h-5.546z"/><g fill="none" stroke="#000"><path d="M43.148 61.489l-.067 9.755M35.084 58.54l-6.85 6.947" stroke-width=".965"/><path d="M26.63 53.117l4.778-.735M27.21 55.656l4.597-1.497M28.16 58.185l4.277-2.252M29.558 60.392l3.893-2.865M33.227 64.146l2.868-3.891M35.518 65.585l2.202-4.304M37.95 66.5l1.444-4.613M40.594 67.084l.738-4.778" stroke-width=".465"/><path d="M22.376 50.336l9.755.067" stroke-width=".965"/></g></svg>