<svg xmlns="http://www.w3.org/2000/svg" xmlns:xlink="http://www.w3.org/1999/xlink" width="210mm" height="100mm" viewBox="0 0 210 100"><defs><linearGradient id="a"><stop offset="0" stop-color="#233c3a"/><stop offset="1" stop-color="#fff"/></linearGradient><linearGradient xlink:href="#a" id="b" x1="72.448" y1="73.451" x2="61.481" y2="65.901" gradientUnits="userSpaceOnUse" gradientTransform="translate(-15.29 64.541) scale(1.0572)"/><linearGradient xlink:href="#a" id="c" gradientUnits="userSpaceOnUse" x1="78.775" y1="51.468" x2="94.394" y2="57.479" gradientTransform="translate(-17.124 68.628)"/></defs><text stroke-width="1.406" font-family="sans-serif" font-size="26.334" font-weight="400" transform="matrix(.9904 0 0 1.0097 -18.498 -90.807)" y="147.763" x="79.421" style="line-height:1.25" fill="#233c3a"><tspan font-family="Nunito Sans" font-weight="700" style="-inkscape-font-specification:'Nunito Sans, Bold';font-variant-ligatures:normal;font-variant-caps:normal;font-variant-numeric:normal;font-variant-east-asian:normal" y="147.763" x="79.421">TEMPER<tspan font-size="14.111" style="-inkscape-font-specification:'Nunito Sans, Bold';font-variant-ligatures:normal;font-variant-caps:normal;font-variant-numeric:normal;font-variant-east-asian:normal">app</tspan></tspan></text><path stroke-linejoin="round" stroke-linecap="square" stroke-width="2.324" stroke="#233c3a" fill="none" d="M31.263 50.37a11.77 12.053 0 017.475-11.195 11.77 12.053 0 0112.914 3.012 11.77 12.053 0 012.001 13.407 11.77 12.053 0 01-11.445 6.826"/><path stroke-linejoin="round" stroke-linecap="square" stroke-width="1.461" stroke="#233c3a" fill="none" d="M28.003 50.949a14.996 14.996 0 019.01-14.264 14.996 14.996 0 0116.574 3.143A14.996 14.996 0 0156.75 56.4a14.996 14.996 0 01-14.252 9.026"/><path d="M25.424 48.612h8.887v4.21h-8.887z" fill="#f5fbfb"/><g transform="translate(-18.365 -91.074)"><ellipse fill="url(#b)" cx="61.438" cy="141.416" rx="4.94" ry="5.271"/><path stroke-linecap="round" stroke-width="1.965" stroke="#233c3a" fill="none" d="M65.4 141.976l.063-17.673 2.283-3.678"/><path transform="translate(5.953 .53)" fill="url(#c)" d="M58.491 119.419l.047 6.19 4.846-.934s3.658-.916 6.592-2.174c.978-.42 2.311-1.476 2.311-1.476v-7.512s-.746.885-1.346 1.441c-.884.818-1.925 1.346-3.048 1.866-1.662.77-6.95 2.236-6.95 2.236z"/></g><path d="M39.355 59.133h5.546v10.49h-5.546z" fill="#f5fbfb"/><g stroke="#233c3a" fill="none"><path stroke-width=".965" d="M43.148 61.489l-.067 9.755M35.084 58.54l-6.85 6.947"/><path stroke-width=".465" d="M26.63 53.117l4.778-.735m-4.198 3.274l4.597-1.497m-3.647 4.026l4.277-2.252m-2.879 4.459l3.893-2.865m-.224 6.619l2.868-3.891m-.577 5.33l2.202-4.304m.23 5.219l1.444-4.613m1.2 5.197l.738-4.778"/><path stroke-width=".965" d="M22.376 50.336l9.755.067"/></g></svg>