<svg xmlns="http://www.w3.org/2000/svg" xmlns:xlink="http://www.w3.org/1999/xlink" viewBox="0 0 210 100" height="100mm"
    width="210mm">
    <defs>
        <linearGradient gradientTransform="translate(-15.29 64.541) scale(1.0572)" gradientUnits="userSpaceOnUse"
            y2="65.901" x2="61.481" y1="73.451" x1="72.448" id="b" xlink:href="#a" />
        <linearGradient gradientTransform="translate(-17.124 68.628)" y2="57.479" x2="94.394" y1="51.468" x1="78.775"
            gradientUnits="userSpaceOnUse" id="c" xlink:href="#a" />
        <linearGradient id="a">
            <stop offset="0" stop-color="#f5fbfb" />
            <stop offset="1" stop-color="#233c3a" />
        </linearGradient>
    </defs>
    <g style="fill:#f5fbfb;fill-opacity:1;stroke-width:1.00012498;stroke-miterlimit:4;stroke-dasharray:none">
        <path transform="matrix(.26458 0 0 .26458 -27.172 41.672)"
            d="M264.836-28.943a60.654 60.654 0 0 0-58.963 46.435h6.234a54.738 54.738 0 0 1 52.998-41.043 54.738 54.738 0 0 1 54.739 54.739 54.738 54.738 0 0 1-43.805 53.634v6.498a60.654 60.654 0 0 0 49.451-59.61 60.654 60.654 0 0 0-60.654-60.653z"
            style="fill:#f5fbfb;fill-opacity:1;stroke:none;stroke-width:3.77999999;stroke-linejoin:round;stroke-miterlimit:4;stroke-dasharray:none" />
        <path
            d="M82.07-29.488a13.163 13.163 0 0 0-12.577 9.339h2.395a10.893 10.893 0 0 1 10.2-7.07 10.893 10.893 0 0 1 10.893 10.894 10.893 10.893 0 0 1-7.74 10.426v2.353a13.163 13.163 0 0 0 10.01-12.779 13.163 13.163 0 0 0-13.163-13.163 13.163 13.163 0 0 0-.019 0z"
            style="fill:#f5fbfb;fill-opacity:1;stroke:none;stroke-width:1.00012498;stroke-linejoin:round;stroke-miterlimit:4;stroke-dasharray:none"
            transform="translate(-39.265 66.441)" />
    </g>
    <g style="font-weight:400;font-size:26.334px;line-height:1.25;font-family:sans-serif;fill:#233c3a;stroke-width:1.406"
        aria-label="TEMPERapp">
        <path
            style="font-weight:700;font-family:'Nunito Sans';-inkscape-font-specification:'Nunito Sans, Bold';font-variant-ligatures:normal;font-variant-caps:normal;font-variant-numeric:normal;font-variant-east-asian:normal;fill:#f5fbfb;fill-opacity:1"
            d="M85.794 147.763v-15.774h-6.057v-2.791h15.51v2.79h-6.056v15.775zM97.573 147.763v-18.565h12.43v2.686h-9.112v5.108h8.584v2.66h-8.584v5.425h9.111v2.686zM128.564 129.198h2.66v18.565h-3.003v-12.272l-4.898 9.27h-2.265l-4.924-9.138.026 12.14h-3.002v-18.565h2.686l6.373 12.14zM135.273 129.198h8.111q2.976 0 4.635 1.5 1.66 1.475 1.66 4.161 0 2.686-1.66 4.187-1.659 1.501-4.635 1.501h-4.714v7.216h-3.397zm7.69 8.742q3.502 0 3.502-3.054 0-1.554-.869-2.291-.869-.764-2.633-.764h-4.293v6.11zM152.658 147.763v-18.565h12.43v2.686h-9.112v5.108h8.585v2.66h-8.585v5.425h9.112v2.686zM183.754 147.763h-3.687l-3.186-5.925q-.448-.843-1.106-1.185-.658-.343-1.659-.343h-2.58v7.453h-3.345v-18.565h8.216q3.16 0 4.793 1.422 1.659 1.395 1.659 4.055 0 2.133-1.211 3.529-1.186 1.37-3.371 1.79 1.474.395 2.37 2.08zm-7.82-10.06q1.921 0 2.817-.71.895-.738.895-2.239 0-1.527-.895-2.212-.896-.711-2.818-.711h-4.424v5.872z"
            transform="matrix(.9904 0 0 1.0097 -18.498 -90.807)" />
        <path
            style="font-size:14.111px;-inkscape-font-specification:'Nunito Sans, Bold';font-variant-ligatures:normal;font-variant-caps:normal;font-variant-numeric:normal;font-variant-east-asian:normal;fill:#f5fbfb;fill-opacity:1"
            d="M188.38 140.693q1.454 0 2.16.706.705.705.705 2.173v4.191h-1.68v-1.058q-.24.55-.761.86-.508.31-1.186.31-.691 0-1.256-.281-.564-.283-.889-.776-.324-.494-.324-1.101 0-.762.38-1.2.396-.437 1.27-.635.876-.197 2.414-.197h.353v-.325q0-.705-.31-1.016-.297-.31-1.003-.31-.55 0-1.157.197-.592.184-1.171.523l-.494-1.214q.579-.367 1.397-.607.819-.24 1.552-.24zm-.409 5.913q.706 0 1.143-.466.452-.48.452-1.227v-.297h-.254q-.946 0-1.468.085t-.748.296q-.226.212-.226.579 0 .451.31.748.311.282.791.282zM196.989 140.693q.889 0 1.58.452.706.451 1.087 1.284.395.818.395 1.89 0 1.073-.395 1.878-.381.804-1.073 1.241-.69.438-1.594.438-.734 0-1.312-.31-.579-.311-.89-.861v3.598h-1.763v-9.44h1.735v1.044q.31-.579.89-.89.592-.324 1.34-.324zm-.466 5.814q.833 0 1.298-.564.466-.579.466-1.623 0-1.073-.466-1.665-.465-.593-1.298-.593-.846 0-1.312.579-.452.578-.452 1.65 0 1.059.452 1.638.466.578 1.312.578zM205.478 140.693q.889 0 1.58.452.706.451 1.087 1.284.395.818.395 1.89 0 1.073-.395 1.878-.381.804-1.073 1.241-.691.438-1.594.438-.734 0-1.313-.31-.578-.311-.889-.861v3.598h-1.764v-9.44h1.736v1.044q.31-.579.889-.89.593-.324 1.34-.324zm-.466 5.814q.832 0 1.298-.564.466-.579.466-1.623 0-1.073-.466-1.665-.466-.593-1.298-.593-.847 0-1.312.579-.452.578-.452 1.65 0 1.059.452 1.638.465.578 1.312.578z"
            transform="matrix(.9904 0 0 1.0097 -18.498 -90.807)" />
    </g>
    <g transform="translate(-18.365 -91.074)">
        <ellipse style="fill-opacity:1" ry="5.271" rx="4.94" cy="141.416" cx="61.438" fill="url(#b)" />
        <path style="stroke:#f5fbfb;stroke-opacity:1" d="m65.4 141.976.063-17.673 2.283-3.678" fill="none"
            stroke="#233c3a" stroke-width="1.965" stroke-linecap="round" />
        <path style="fill-opacity:1"
            d="m58.491 119.419.047 6.19 4.846-.934s3.658-.916 6.592-2.174c.978-.42 2.311-1.476 2.311-1.476v-7.512s-.746.885-1.346 1.441c-.884.818-1.925 1.346-3.048 1.866-1.662.77-6.95 2.236-6.95 2.236z"
            fill="url(#c)" transform="translate(5.953 .53)" />
    </g>
    <g style="fill:none;fill-opacity:1;stroke:#f5fbfb;stroke-opacity:1" fill="none" stroke="#233c3a">
        <path style="fill:none;fill-opacity:1;stroke:#f5fbfb;stroke-opacity:1"
            d="m43.148 61.489-.067 9.755M35.084 58.54l-6.85 6.947" stroke-width=".965" />
        <path style="fill:none;fill-opacity:1;stroke:#f5fbfb;stroke-opacity:1"
            d="m26.63 53.117 4.778-.735m-4.198 3.274 4.597-1.497m-3.647 4.026 4.277-2.252m-2.879 4.459 3.893-2.865m-.224 6.619 2.868-3.891m-.577 5.33 2.202-4.304m.23 5.219 1.444-4.613m1.2 5.197.738-4.778"
            stroke-width=".465" />
        <path style="fill:none;fill-opacity:1;stroke:#f5fbfb;stroke-opacity:1" d="m22.376 50.336 9.755.067"
            stroke-width=".965" />
    </g>
</svg>